<?xml version="1.0" encoding="utf-8"?>
<!-- Generator: Adobe Illustrator 16.2.0, SVG Export Plug-In . SVG Version: 6.00 Build 0)  -->
<!DOCTYPE svg PUBLIC "-//W3C//DTD SVG 1.1//EN" "http://www.w3.org/Graphics/SVG/1.1/DTD/svg11.dtd">
<svg version="1.1" id="Layer_1" xmlns="http://www.w3.org/2000/svg" xmlns:xlink="http://www.w3.org/1999/xlink" x="0px" y="0px"
	 width="233.5px" height="74.662px" viewBox="0 0 233.5 74.662" enable-background="new 0 0 233.5 74.662" xml:space="preserve">
<g>
	<g>
		<path fill="#FFFFFF" d="M80.582,19.123c0.491,0.213,0.917,0.5,1.28,0.863c0.362,0.363,0.65,0.79,0.864,1.279
			c0.213,0.492,0.319,1.015,0.319,1.568v1.217c0,0.299-0.139,0.49-0.416,0.575l-2.911,0.769c-0.277,0.085-0.416-0.021-0.416-0.32
			v-2.08c0-0.213-0.076-0.395-0.226-0.545c-0.149-0.147-0.329-0.223-0.544-0.223h-0.256c-0.212,0-0.395,0.075-0.544,0.223
			c-0.149,0.15-0.224,0.332-0.224,0.545v2.912c0.022,0.234,0.065,0.438,0.128,0.607c0.065,0.171,0.181,0.342,0.354,0.514
			l4.191,3.135c0.341,0.299,0.561,0.603,0.655,0.912c0.096,0.31,0.165,0.656,0.208,1.039v5.505c0,0.555-0.106,1.077-0.319,1.567
			c-0.214,0.491-0.502,0.918-0.864,1.28c-0.363,0.364-0.789,0.652-1.28,0.864c-0.49,0.213-1.013,0.319-1.567,0.319h-1.216
			c-0.556,0-1.078-0.106-1.569-0.319c-0.49-0.212-0.917-0.5-1.279-0.864c-0.363-0.362-0.651-0.789-0.864-1.28
			c-0.213-0.49-0.32-1.013-0.32-1.567v-3.072c0-0.298,0.139-0.49,0.417-0.575l2.911-0.77c0.277-0.084,0.416,0.021,0.416,0.32v3.937
			c0,0.214,0.074,0.395,0.224,0.544s0.332,0.224,0.544,0.224h0.256c0.215,0,0.395-0.074,0.544-0.224s0.226-0.33,0.226-0.544v-4.224
			c-0.021-0.277-0.065-0.523-0.128-0.736c-0.065-0.213-0.192-0.404-0.384-0.576l-4.129-3.168c-0.32-0.299-0.549-0.596-0.688-0.895
			s-0.209-0.693-0.209-1.186v-3.84c0-0.554,0.107-1.076,0.32-1.568c0.213-0.489,0.501-0.916,0.864-1.279
			c0.362-0.363,0.789-0.65,1.279-0.863c0.491-0.215,1.014-0.32,1.569-0.32h1.216C79.569,18.803,80.092,18.908,80.582,19.123z"/>
		<path fill="#FFFFFF" d="M94.406,19.475v18.144c0,0.555-0.107,1.077-0.32,1.567c-0.213,0.491-0.501,0.918-0.863,1.28
			c-0.363,0.364-0.791,0.652-1.28,0.864c-0.492,0.213-1.015,0.319-1.569,0.319h-1.216c-0.555,0-1.077-0.106-1.567-0.319
			c-0.491-0.212-0.918-0.5-1.28-0.864c-0.362-0.362-0.65-0.789-0.864-1.28c-0.213-0.49-0.319-1.013-0.319-1.567V19.475
			c0-0.299,0.149-0.449,0.448-0.449h2.848c0.298,0,0.447,0.15,0.447,0.449v17.983c0,0.214,0.075,0.395,0.225,0.544
			c0.148,0.149,0.33,0.224,0.544,0.224h0.256c0.213,0,0.395-0.074,0.544-0.224c0.15-0.149,0.224-0.33,0.224-0.544V19.475
			c0-0.299,0.149-0.449,0.448-0.449h2.849C94.257,19.025,94.406,19.176,94.406,19.475z"/>
		<path fill="#FFFFFF" d="M103.301,19.123c0.49,0.213,0.917,0.5,1.281,0.863c0.361,0.363,0.65,0.79,0.862,1.279
			c0.213,0.492,0.321,1.015,0.321,1.568v1.217c0,0.299-0.139,0.49-0.417,0.575l-2.912,0.769c-0.277,0.085-0.416-0.021-0.416-0.32
			v-2.08c0-0.213-0.074-0.395-0.224-0.545c-0.149-0.147-0.331-0.223-0.544-0.223h-0.256c-0.214,0-0.395,0.075-0.544,0.223
			c-0.149,0.15-0.224,0.332-0.224,0.545v2.912c0.021,0.234,0.063,0.438,0.128,0.607c0.063,0.171,0.181,0.342,0.352,0.514
			l4.191,3.135c0.341,0.299,0.561,0.603,0.656,0.912c0.097,0.31,0.165,0.656,0.209,1.039v5.505c0,0.555-0.108,1.077-0.321,1.567
			c-0.212,0.491-0.501,0.918-0.862,1.28c-0.364,0.364-0.791,0.652-1.281,0.864c-0.491,0.213-1.014,0.319-1.567,0.319h-1.217
			c-0.555,0-1.077-0.106-1.567-0.319c-0.491-0.212-0.917-0.5-1.28-0.864c-0.362-0.362-0.65-0.789-0.863-1.28
			c-0.214-0.49-0.32-1.013-0.32-1.567v-3.072c0-0.298,0.139-0.49,0.416-0.575l2.912-0.77c0.276-0.084,0.416,0.021,0.416,0.32v3.937
			c0,0.214,0.074,0.395,0.224,0.544s0.33,0.224,0.544,0.224h0.256c0.213,0,0.395-0.074,0.544-0.224s0.224-0.33,0.224-0.544v-4.224
			c-0.021-0.277-0.063-0.523-0.128-0.736c-0.063-0.213-0.191-0.404-0.384-0.576l-4.128-3.168c-0.319-0.299-0.55-0.596-0.688-0.895
			c-0.14-0.299-0.208-0.693-0.208-1.186v-3.84c0-0.554,0.106-1.076,0.32-1.568c0.213-0.489,0.501-0.916,0.863-1.279
			c0.363-0.363,0.789-0.65,1.28-0.863c0.49-0.215,1.013-0.32,1.567-0.32h1.217C102.287,18.803,102.81,18.908,103.301,19.123z"/>
		<path fill="#FFFFFF" d="M116.196,19.475v2.848c0,0.299-0.149,0.448-0.448,0.448h-2.271v18.207c0,0.299-0.149,0.448-0.448,0.448
			h-2.848c-0.106,0-0.208-0.043-0.305-0.128c-0.096-0.085-0.143-0.192-0.143-0.32V22.771h-2.24c-0.3,0-0.449-0.149-0.449-0.448
			v-2.848c0-0.299,0.149-0.449,0.449-0.449h8.255C116.047,19.025,116.196,19.176,116.196,19.475z"/>
		<path fill="#FFFFFF" d="M126.757,40.978c0.042,0.299-0.086,0.448-0.385,0.448h-2.911c-0.277,0-0.438-0.149-0.48-0.448
			l-0.256-3.455h-1.983l-0.256,3.455c-0.043,0.299-0.203,0.448-0.48,0.448h-2.912c-0.3,0-0.428-0.149-0.385-0.448l2.401-21.503
			c0.041-0.299,0.212-0.449,0.512-0.449h4.224c0.299,0,0.469,0.15,0.512,0.449L126.757,40.978z M122.469,33.938l-0.607-8.672h-0.257
			l-0.607,8.672H122.469z"/>
		<path fill="#FFFFFF" d="M132.613,40.978c0,0.299-0.151,0.448-0.448,0.448h-2.849c-0.299,0-0.448-0.149-0.448-0.448V19.475
			c0-0.299,0.149-0.449,0.448-0.449h2.849c0.297,0,0.448,0.15,0.448,0.449V40.978z"/>
		<path fill="#FFFFFF" d="M145.732,19.475v21.503c0,0.299-0.149,0.448-0.449,0.448h-2.048c-0.128,0-0.25-0.043-0.367-0.128
			c-0.119-0.085-0.198-0.18-0.24-0.288l-3.393-10.592v10.56c0,0.299-0.149,0.448-0.447,0.448h-2.848
			c-0.299,0-0.448-0.149-0.448-0.448V19.475c0-0.299,0.149-0.449,0.448-0.449h2.111c0.128,0,0.25,0.043,0.367,0.129
			s0.198,0.182,0.241,0.287l3.327,10.273v-10.24c0-0.299,0.149-0.449,0.448-0.449h2.848
			C145.583,19.025,145.732,19.176,145.732,19.475z"/>
		<path fill="#FFFFFF" d="M157.891,40.978c0.043,0.299-0.085,0.448-0.384,0.448h-2.912c-0.277,0-0.438-0.149-0.479-0.448
			l-0.256-3.455h-1.984l-0.256,3.455c-0.043,0.299-0.203,0.448-0.479,0.448h-2.912c-0.3,0-0.428-0.149-0.384-0.448l2.399-21.503
			c0.043-0.299,0.214-0.449,0.512-0.449h4.224c0.299,0,0.47,0.15,0.513,0.449L157.891,40.978z M153.604,33.938l-0.608-8.672h-0.256
			l-0.608,8.672H153.604z"/>
		<path fill="#FFFFFF" d="M168.387,30.258c0.299,0.299,0.522,0.65,0.672,1.057c0.149,0.404,0.224,0.854,0.224,1.344v4.736
			c0,0.555-0.106,1.077-0.319,1.567c-0.214,0.491-0.502,0.917-0.864,1.28c-0.363,0.362-0.789,0.65-1.28,0.863
			c-0.49,0.214-1.013,0.32-1.567,0.32h-4.801c-0.299,0-0.448-0.149-0.448-0.448V19.475c0-0.299,0.149-0.449,0.448-0.449h4.801
			c0.555,0,1.077,0.107,1.567,0.32c0.491,0.215,0.917,0.502,1.28,0.865c0.362,0.361,0.65,0.789,0.864,1.279
			c0.213,0.491,0.319,1.014,0.319,1.568v3.199c0,0.981-0.299,1.803-0.896,2.464c-0.32,0.343-0.704,0.62-1.152,0.833
			C167.704,29.725,168.088,29.959,168.387,30.258z M165.539,23.219c0-0.214-0.075-0.395-0.225-0.544s-0.33-0.226-0.544-0.226h-1.023
			v5.44h1.023c0.214,0,0.395-0.073,0.544-0.224c0.149-0.149,0.225-0.33,0.225-0.544V23.219z M165.539,32.146
			c0-0.213-0.075-0.395-0.225-0.545c-0.149-0.148-0.33-0.223-0.544-0.223h-1.023v6.623h1.023c0.214,0,0.395-0.074,0.544-0.224
			s0.225-0.331,0.225-0.544V32.146z"/>
		<path fill="#FFFFFF" d="M180.002,38.13v2.848c0,0.299-0.149,0.448-0.447,0.448h-4.321h-0.063h-0.033h-2.848
			c-0.299,0-0.448-0.149-0.448-0.448V19.475c0-0.299,0.149-0.449,0.448-0.449h2.848c0.3,0,0.449,0.15,0.449,0.449v18.207h3.968
			C179.853,37.682,180.002,37.832,180.002,38.13z"/>
		<path fill="#FFFFFF" d="M190.082,38.13v2.848c0,0.299-0.149,0.448-0.449,0.448h-6.943c-0.299,0-0.448-0.149-0.448-0.448V19.475
			c0-0.299,0.149-0.449,0.448-0.449h6.943c0.3,0,0.449,0.15,0.449,0.449v2.848c0,0.299-0.149,0.448-0.449,0.448h-3.647v4.607h3.169
			c0.297,0,0.448,0.149,0.448,0.448v2.848c0,0.299-0.151,0.449-0.448,0.449h-3.169v6.559h3.647
			C189.933,37.682,190.082,37.832,190.082,38.13z"/>
		<path fill="#FFFFFF" d="M203.195,33.908c-0.031,0.544-0.062,1.15-0.062,2.066v4.365c0,1.724-0.343,2.778-1.072,3.433
			c-0.729,0.682-1.787,0.899-2.733,0.899c-0.901,0-1.895-0.218-2.501-0.622l0.343-1.039c0.497,0.31,1.272,0.589,2.204,0.589
			c1.397,0,2.424-0.729,2.424-2.625v-0.837h-0.031c-0.42,0.698-1.229,1.258-2.393,1.258c-1.863,0-3.199-1.585-3.199-3.666
			c0-2.547,1.661-3.99,3.387-3.99c1.305,0,2.018,0.683,2.344,1.303h0.031l0.063-1.134H203.195z M201.781,36.876
			c0-0.232-0.015-0.435-0.078-0.622c-0.247-0.791-0.915-1.444-1.909-1.444c-1.305,0-2.236,1.103-2.236,2.843
			c0,1.476,0.746,2.702,2.22,2.702c0.839,0,1.601-0.528,1.895-1.397c0.078-0.233,0.109-0.497,0.109-0.73V36.876z"/>
		<path fill="#FFFFFF" d="M204.655,36.254c0-0.885-0.016-1.646-0.063-2.346h1.195l0.048,1.477h0.062
			c0.342-1.011,1.165-1.646,2.082-1.646c0.154,0,0.264,0.015,0.388,0.046v1.289c-0.14-0.032-0.28-0.047-0.466-0.047
			c-0.963,0-1.646,0.73-1.833,1.755c-0.03,0.187-0.062,0.403-0.062,0.637v4.007h-1.352V36.254z"/>
		<path fill="#FFFFFF" d="M215.729,37.606c0,2.779-1.927,3.99-3.743,3.99c-2.034,0-3.603-1.49-3.603-3.867
			c0-2.517,1.646-3.99,3.727-3.99C214.269,33.739,215.729,35.308,215.729,37.606z M209.767,37.683c0,1.647,0.946,2.89,2.282,2.89
			c1.305,0,2.283-1.228,2.283-2.92c0-1.274-0.637-2.889-2.253-2.889C210.465,34.764,209.767,36.254,209.767,37.683z"/>
		<path fill="#FFFFFF" d="M223.091,39.377c0,0.775,0.017,1.459,0.063,2.049h-1.211l-0.078-1.227h-0.031
			c-0.356,0.606-1.148,1.397-2.483,1.397c-1.182,0-2.594-0.652-2.594-3.292v-4.396h1.365v4.164c0,1.429,0.435,2.391,1.678,2.391
			c0.917,0,1.554-0.637,1.802-1.242c0.078-0.202,0.124-0.45,0.124-0.699v-4.613h1.366V39.377z"/>
		<path fill="#FFFFFF" d="M224.707,36.363c0-0.963-0.031-1.739-0.063-2.455h1.228l0.063,1.29h0.031
			c0.559-0.917,1.443-1.459,2.672-1.459c1.816,0,3.183,1.536,3.183,3.819c0,2.703-1.646,4.038-3.416,4.038
			c-0.995,0-1.865-0.435-2.314-1.181h-0.031v4.086h-1.352V36.363z M226.059,38.367c0,0.201,0.031,0.388,0.063,0.559
			c0.249,0.948,1.071,1.6,2.051,1.6c1.443,0,2.282-1.181,2.282-2.904c0-1.507-0.792-2.796-2.237-2.796
			c-0.932,0-1.801,0.668-2.065,1.693c-0.047,0.171-0.093,0.372-0.093,0.559V38.367z"/>
	</g>
	<g>
		<path fill="#FFFFFF" d="M101.917,52.866v9.943c0,0.161-0.081,0.242-0.242,0.242h-1.548c-0.162,0-0.243-0.081-0.243-0.242v-3.93
			h-1.147v3.93c0,0.161-0.081,0.242-0.243,0.242h-1.548c-0.161,0-0.242-0.081-0.242-0.242v-9.943c0-0.161,0.081-0.242,0.242-0.242
			h1.548c0.162,0,0.243,0.081,0.243,0.242v3.98h1.147v-3.98c0-0.161,0.081-0.242,0.243-0.242h1.548
			C101.836,52.624,101.917,52.705,101.917,52.866z"/>
		<path fill="#FFFFFF" d="M107.619,60.983c0,0.302-0.058,0.587-0.174,0.854c-0.115,0.267-0.273,0.498-0.47,0.695
			c-0.196,0.196-0.428,0.353-0.694,0.468c-0.267,0.116-0.551,0.173-0.853,0.173h-0.66c-0.302,0-0.586-0.057-0.853-0.173
			c-0.267-0.115-0.498-0.271-0.694-0.468c-0.198-0.197-0.354-0.429-0.47-0.695c-0.116-0.267-0.174-0.552-0.174-0.854v-6.291
			c0-0.302,0.058-0.587,0.174-0.854c0.115-0.267,0.271-0.498,0.47-0.695c0.196-0.196,0.428-0.353,0.694-0.468
			c0.267-0.116,0.551-0.176,0.853-0.176h0.66c0.302,0,0.586,0.06,0.853,0.176c0.267,0.115,0.498,0.271,0.694,0.468
			c0.196,0.197,0.354,0.429,0.47,0.695c0.116,0.267,0.174,0.552,0.174,0.854V60.983z M105.585,54.778
			c0-0.115-0.041-0.215-0.121-0.296c-0.081-0.081-0.181-0.121-0.295-0.121h-0.141c-0.115,0-0.214,0.04-0.295,0.121
			c-0.082,0.081-0.122,0.181-0.122,0.296v6.119c0,0.115,0.04,0.215,0.122,0.296c0.081,0.081,0.18,0.121,0.295,0.121h0.141
			c0.114,0,0.214-0.04,0.295-0.121c0.08-0.081,0.121-0.181,0.121-0.296V54.778z"/>
		<path fill="#FFFFFF" d="M115.059,52.866v9.943c0,0.161-0.082,0.242-0.243,0.242h-1.669c-0.163,0-0.243-0.081-0.243-0.242v-4.624
			l-1.147,4.136c-0.023,0.06-0.053,0.089-0.088,0.089c-0.033,0-0.063-0.029-0.086-0.089l-1.147-4.136v4.624
			c0,0.161-0.08,0.242-0.243,0.242h-1.669c-0.162,0-0.243-0.081-0.243-0.242v-9.943c0-0.161,0.081-0.242,0.243-0.242H110
			c0.07,0,0.131,0.024,0.183,0.078c0.052,0.052,0.089,0.105,0.113,0.164l1.372,5.354l1.374-5.354
			c0.022-0.059,0.061-0.112,0.113-0.164c0.052-0.054,0.112-0.078,0.183-0.078h1.478C114.977,52.624,115.059,52.705,115.059,52.866z"
			/>
		<path fill="#FFFFFF" d="M120.151,61.261v1.549c0,0.161-0.081,0.242-0.244,0.242h-3.771c-0.163,0-0.243-0.081-0.243-0.242v-9.943
			c0-0.161,0.08-0.242,0.243-0.242h3.771c0.163,0,0.244,0.081,0.244,0.242v1.546c0,0.165-0.081,0.245-0.244,0.245h-1.98v1.982h1.721
			c0.162,0,0.242,0.081,0.242,0.242v1.546c0,0.164-0.08,0.245-0.242,0.245h-1.721v2.346h1.98
			C120.07,61.019,120.151,61.1,120.151,61.261z"/>
	</g>
	<g>
		<path fill="#FFFFFF" d="M138.785,52.866v1.546c0,0.165-0.081,0.245-0.242,0.245h-1.982v1.982h1.722
			c0.161,0,0.242,0.081,0.242,0.242v1.546c0,0.164-0.081,0.245-0.242,0.245h-1.722v4.137c0,0.161-0.08,0.242-0.243,0.242h-1.547
			c-0.162,0-0.244-0.081-0.244-0.242v-9.943c0-0.161,0.082-0.242,0.244-0.242h3.772C138.704,52.624,138.785,52.705,138.785,52.866z"
			/>
		<path fill="#FFFFFF" d="M144.227,60.983c0,0.302-0.058,0.587-0.174,0.854c-0.115,0.267-0.273,0.498-0.47,0.695
			c-0.196,0.196-0.428,0.353-0.695,0.468c-0.266,0.116-0.55,0.173-0.852,0.173h-0.66c-0.302,0-0.586-0.057-0.853-0.173
			c-0.267-0.115-0.498-0.271-0.694-0.468c-0.198-0.197-0.354-0.429-0.47-0.695c-0.116-0.267-0.174-0.552-0.174-0.854v-6.291
			c0-0.302,0.058-0.587,0.174-0.854c0.115-0.267,0.271-0.498,0.47-0.695c0.196-0.196,0.428-0.353,0.694-0.468
			c0.267-0.116,0.551-0.176,0.853-0.176h0.66c0.302,0,0.586,0.06,0.852,0.176c0.268,0.115,0.499,0.271,0.695,0.468
			c0.196,0.197,0.354,0.429,0.47,0.695c0.116,0.267,0.174,0.552,0.174,0.854V60.983z M142.192,54.778
			c0-0.115-0.041-0.215-0.121-0.296c-0.081-0.081-0.181-0.121-0.295-0.121h-0.141c-0.115,0-0.214,0.04-0.295,0.121
			c-0.08,0.081-0.121,0.181-0.121,0.296v6.119c0,0.115,0.041,0.215,0.121,0.296c0.081,0.081,0.18,0.121,0.295,0.121h0.141
			c0.114,0,0.214-0.04,0.295-0.121c0.08-0.081,0.121-0.181,0.121-0.296V54.778z"/>
		<path fill="#FFFFFF" d="M149.754,60.983c0,0.302-0.058,0.587-0.175,0.854c-0.116,0.267-0.272,0.498-0.469,0.695
			c-0.198,0.196-0.428,0.353-0.695,0.468c-0.266,0.116-0.55,0.173-0.852,0.173h-0.661c-0.301,0-0.585-0.057-0.852-0.173
			c-0.267-0.115-0.498-0.271-0.694-0.468c-0.198-0.197-0.354-0.429-0.47-0.695c-0.116-0.267-0.174-0.552-0.174-0.854v-6.291
			c0-0.302,0.058-0.587,0.174-0.854c0.115-0.267,0.271-0.498,0.47-0.695c0.196-0.196,0.428-0.353,0.694-0.468
			c0.267-0.116,0.551-0.176,0.852-0.176h0.661c0.302,0,0.586,0.06,0.852,0.176c0.268,0.115,0.497,0.271,0.695,0.468
			c0.196,0.197,0.353,0.429,0.469,0.695c0.117,0.267,0.175,0.552,0.175,0.854V60.983z M147.72,54.778
			c0-0.115-0.041-0.215-0.121-0.296c-0.082-0.081-0.181-0.121-0.297-0.121h-0.139c-0.115,0-0.214,0.04-0.295,0.121
			c-0.082,0.081-0.122,0.181-0.122,0.296v6.119c0,0.115,0.04,0.215,0.122,0.296c0.081,0.081,0.18,0.121,0.295,0.121h0.139
			c0.116,0,0.215-0.04,0.297-0.121c0.08-0.081,0.121-0.181,0.121-0.296V54.778z"/>
		<path fill="#FFFFFF" d="M153.265,52.624c0.301,0,0.585,0.057,0.852,0.173c0.267,0.115,0.499,0.271,0.695,0.469
			c0.196,0.199,0.353,0.431,0.47,0.697c0.116,0.267,0.174,0.549,0.174,0.851v6.049c0,0.302-0.058,0.584-0.174,0.851
			c-0.117,0.267-0.273,0.498-0.47,0.697c-0.196,0.197-0.429,0.354-0.695,0.469c-0.267,0.116-0.551,0.173-0.852,0.173h-2.607
			c-0.163,0-0.243-0.081-0.243-0.242v-9.943c0-0.161,0.08-0.242,0.243-0.242H153.265z M153.421,54.899
			c0-0.115-0.041-0.212-0.121-0.296c-0.081-0.081-0.181-0.121-0.295-0.121h-0.558v6.711h0.558c0.114,0,0.214-0.04,0.295-0.121
			c0.08-0.084,0.121-0.181,0.121-0.296V54.899z"/>
	</g>
	<g>
		<path fill="#FFFFFF" d="M175.52,61.261v1.549c0,0.161-0.082,0.242-0.244,0.242h-3.771c-0.163,0-0.243-0.081-0.243-0.242v-9.943
			c0-0.161,0.08-0.242,0.243-0.242h3.771c0.162,0,0.244,0.081,0.244,0.242v1.546c0,0.165-0.082,0.245-0.244,0.245h-1.981v1.982
			h1.721c0.162,0,0.243,0.081,0.243,0.242v1.546c0,0.164-0.081,0.245-0.243,0.245h-1.721v2.346h1.981
			C175.438,61.019,175.52,61.1,175.52,61.261z"/>
		<path fill="#FFFFFF" d="M181.741,52.866v9.943c0,0.161-0.08,0.242-0.242,0.242h-1.113c-0.069,0-0.137-0.021-0.199-0.067
			c-0.064-0.049-0.108-0.1-0.131-0.159l-1.842-4.535v4.52c0,0.161-0.082,0.242-0.244,0.242h-1.547c-0.163,0-0.244-0.081-0.244-0.242
			v-9.943c0-0.161,0.081-0.242,0.244-0.242h1.147c0.069,0,0.136,0.021,0.199,0.067c0.064,0.049,0.107,0.1,0.13,0.156l1.809,5.061
			v-5.042c0-0.161,0.081-0.242,0.244-0.242h1.547C181.661,52.624,181.741,52.705,181.741,52.866z"/>
		<path fill="#FFFFFF" d="M186.834,61.261v1.549c0,0.161-0.081,0.242-0.242,0.242h-3.773c-0.161,0-0.242-0.081-0.242-0.242v-9.943
			c0-0.161,0.081-0.242,0.242-0.242h3.773c0.161,0,0.242,0.081,0.242,0.242v1.546c0,0.165-0.081,0.245-0.242,0.245h-1.982v1.982
			h1.721c0.162,0,0.244,0.081,0.244,0.242v1.546c0,0.164-0.082,0.245-0.244,0.245h-1.721v2.346h1.982
			C186.753,61.019,186.834,61.1,186.834,61.261z"/>
		<path fill="#FFFFFF" d="M189.616,62.81c0,0.161-0.088,0.242-0.262,0.242h-1.547c-0.151,0-0.227-0.081-0.227-0.242v-9.943
			c0-0.161,0.081-0.242,0.244-0.242h2.606c0.302,0,0.586,0.057,0.853,0.173c0.267,0.115,0.498,0.271,0.694,0.469
			c0.198,0.199,0.354,0.431,0.471,0.697c0.115,0.267,0.173,0.549,0.173,0.851v2.139c0,0.428-0.128,0.813-0.382,1.155
			c-0.255,0.342-0.563,0.605-0.921,0.792l1.65,3.91c0.035,0.161-0.022,0.242-0.174,0.242h-1.582c-0.068,0-0.136-0.021-0.199-0.067
			c-0.064-0.049-0.107-0.105-0.131-0.175l-1.268-3.216V62.81z M189.616,57.28h0.556c0.116,0,0.214-0.04,0.295-0.121
			s0.122-0.178,0.122-0.296v-1.964c0-0.115-0.041-0.212-0.122-0.296c-0.081-0.081-0.179-0.121-0.295-0.121h-0.556V57.28z"/>
		<path fill="#FFFFFF" d="M196.917,52.676c0.265,0.115,0.496,0.271,0.694,0.468c0.196,0.197,0.353,0.429,0.469,0.695
			c0.115,0.267,0.175,0.552,0.175,0.854v0.383c0,0.161-0.077,0.267-0.227,0.313l-1.582,0.573c-0.15,0.046-0.226-0.011-0.226-0.175
			v-1.008c0-0.115-0.041-0.215-0.121-0.296c-0.083-0.081-0.181-0.121-0.297-0.121h-0.139c-0.115,0-0.214,0.04-0.295,0.121
			c-0.082,0.081-0.122,0.181-0.122,0.296v6.119c0,0.115,0.04,0.215,0.122,0.296c0.081,0.081,0.18,0.121,0.295,0.121h0.139
			c0.116,0,0.214-0.04,0.297-0.121c0.08-0.081,0.121-0.181,0.121-0.296v-1.877h-0.486v-1.982h2.276c0.162,0,0.244,0.081,0.244,0.242
			v3.703c0,0.302-0.06,0.587-0.175,0.854c-0.116,0.267-0.272,0.498-0.469,0.695c-0.198,0.196-0.43,0.353-0.694,0.468
			c-0.268,0.116-0.551,0.173-0.853,0.173h-0.661c-0.301,0-0.585-0.057-0.852-0.173c-0.267-0.115-0.498-0.271-0.696-0.468
			c-0.196-0.197-0.353-0.429-0.468-0.695c-0.116-0.267-0.174-0.552-0.174-0.854v-6.291c0-0.302,0.058-0.587,0.174-0.854
			c0.115-0.267,0.271-0.498,0.468-0.695c0.198-0.196,0.43-0.353,0.696-0.468c0.267-0.116,0.551-0.176,0.852-0.176h0.661
			C196.366,52.5,196.649,52.56,196.917,52.676z"/>
		<path fill="#FFFFFF" d="M204.355,52.702c0.034,0.052,0.041,0.105,0.017,0.164l-1.998,6.154v3.789c0,0.161-0.081,0.242-0.244,0.242
			h-1.564c-0.161,0-0.242-0.081-0.242-0.242v-3.789l-2-6.154c-0.022-0.059-0.018-0.112,0.018-0.164
			c0.035-0.054,0.086-0.078,0.156-0.078h1.844c0.161,0,0.254,0.081,0.277,0.242l0.694,3.337h0.07l0.696-3.337
			c0.022-0.161,0.114-0.242,0.277-0.242h1.842C204.269,52.624,204.321,52.648,204.355,52.702z"/>
	</g>
</g>
<g>
	<polygon fill-rule="evenodd" clip-rule="evenodd" fill="#A876A1" points="17.137,37.416 32.677,10.499 48.154,37.307 
		41.213,37.308 32.673,22.58 27.626,31.32 35.106,31.258 38.665,37.332 22.094,45.305 30.646,37.406 17.137,37.416 	"/>
	<polygon fill-rule="evenodd" clip-rule="evenodd" fill="#C596C4" points="17.137,37.416 32.645,17.721 48.154,37.307 
		41.213,37.308 32.696,22.594 27.65,31.334 26.076,34.061 38.665,37.332 22.094,45.305 30.646,37.406 17.137,37.416 	"/>
	<polygon fill-rule="evenodd" clip-rule="evenodd" fill="#009DC1" points="48.152,37.305 63.692,64.222 32.739,64.222 36.208,58.21 
		53.232,58.179 48.187,49.438 44.501,55.946 37.461,55.992 38.842,37.654 41.406,49.011 48.152,37.305 	"/>
	<polygon fill-rule="evenodd" clip-rule="evenodd" fill="#2BC2E8" points="48.152,37.305 57.454,60.583 32.739,64.222 36.208,58.21 
		53.209,58.192 48.163,49.452 46.588,46.726 37.461,55.992 38.842,37.654 41.406,49.011 48.152,37.305 	"/>
	<polygon fill-rule="evenodd" clip-rule="evenodd" fill="#279D4E" points="32.739,64.222 1.659,64.222 17.136,37.416 20.608,43.425 
		12.123,58.186 22.215,58.186 18.422,51.738 21.902,45.62 37.094,55.983 25.976,52.527 32.739,64.222 	"/>
	<polygon fill-rule="evenodd" clip-rule="evenodd" fill="#4BB64F" points="32.739,64.222 7.929,60.639 17.136,37.416 20.608,43.425 
		12.123,58.157 22.215,58.157 25.363,58.157 21.902,45.62 37.094,55.983 25.976,52.527 32.739,64.222 	"/>
</g>
</svg>
